PathFileType	4	(X/Y/Z)	F:\MotionCapture\20160217\3\Generated_files\EMG_test02-Dynamic.trc
DataRate	CameraRate	NumFrames	NumMarkers	Units	OrigDataRate	OrigDataStartFrame	OrigNumFrames
120.00	120.00	       6	39	mm	120.00	425	       679
Frame#	Time	Top.Head			Front.Head			Rear.Head			R.Shoulder			R.Offset			R.Elbow			R.Wrist			L.Shoulder			L.Elbow			L.Wrist			R.ASIS			L.ASIS			V.Sacral			R.Thigh			R.Knee			R.Shank			R.Ankle			R.Heel			R.Toe			L.Thigh			L.Knee			L.Shank			L.Ankle			L.Heel			L.Toe			R1			R2			R3			R4			R5			R6			R7			L1			L2			L3			L4			L5			L6			L7			V_Mid_ASIS			V_Pelvis_Origin			V_R.Hip_JC			V_L.Hip_JC			V_R.Knee_JC			V_L.Knee_JC			V_R.Ankle_JC			V_L.Ankle_JC			V_Mid_Hip			V_Mid_Shoulder			V_R.Hand			V_L.Hand			V_R.Toe_Offset_Static			V_L.Toe_Offset_Static			V_R.Toe_Offset			V_L.Toe_Offset			
		X1	Y1	Z1	X2	Y2	Z2	X3	Y3	Z3	X4	Y4	Z4	X5	Y5	Z5	X6	Y6	Z6	X7	Y7	Z7	X8	Y8	Z8	X9	Y9	Z9	X10	Y10	Z10	X11	Y11	Z11	X12	Y12	Z12	X13	Y13	Z13	X14	Y14	Z14	X15	Y15	Z15	X16	Y16	Z16	X17	Y17	Z17	X18	Y18	Z18	X19	Y19	Z19	X20	Y20	Z20	X21	Y21	Z21	X22	Y22	Z22	X23	Y23	Z23	X24	Y24	Z24	X25	Y25	Z25	X26	Y26	Z26	X27	Y27	Z27	X28	Y28	Z28	X29	Y29	Z29	X30	Y30	Z30	X31	Y31	Z31	X32	Y32	Z32	X33	Y33	Z33	X34	Y34	Z34	X35	Y35	Z35	X36	Y36	Z36	X37	Y37	Z37	X38	Y38	Z38	X39	Y39	Z39	

425	3.533	-536.01343	174.47168	1726.65222	-647.63470	173.61252	1643.97791	-427.60287	163.96617	1657.43079	-474.40714	367.21698	1424.87451	-360.90326	91.92574	1275.71765	-449.56302	490.05612	1109.26477	-620.30371	487.16501	906.25366	-519.25214	-37.44964	1419.12122	-472.45511	-155.59618	1109.35437	-544.30780	-186.35089	863.65253	-552.61981	306.86316	941.17072	-579.97693	22.30599	949.83801	-345.66714	135.56471	943.70691	-657.13983	296.38113	581.91730	-587.57611	336.85123	465.91254	-442.84076	245.31363	284.72314	-278.54053	289.36768	207.71214	-223.62975	213.44836	233.97334	-347.16870	283.58035	81.41627	-644.66241	78.18608	634.14020	-575.05658	27.77485	462.82837	-580.91925	112.42680	325.87631	-513.32965	59.98053	58.27705	-445.37952	115.16219	42.72089	-653.48932	74.33712	38.36610	-384.79169	277.35156	55.46240	-361.90204	250.02188	80.51424	-318.85266	206.57510	158.05547	-261.17401	191.12666	199.84479	-235.31691	260.89377	212.92473	-272.95944	299.24539	149.95639	-311.14923	315.06042	99.30389	-696.28845	102.69831	33.59906	-662.89368	114.05999	43.03905	-566.47424	152.56720	49.49697	-480.27057	146.87355	44.50718	-475.24686	76.64257	38.77152	-548.96680	51.53083	30.93820	-612.79669	40.11043	35.07891																																																	-252.06297	271.81982	211.49612	-644.49683	70.80349	-74.26609	
426	3.542	-548.28137	175.12492	1728.04834	-660.08136	174.23114	1645.42285	-440.30060	164.30905	1659.06226	-485.38052	367.06357	1425.82300	-372.90341	91.08177	1278.17273	-457.90781	488.89221	1110.33081	-623.56000	486.42487	902.57123	-531.85382	-36.79116	1421.63477	-490.84348	-156.17674	1110.89832	-571.87866	-185.78642	867.79309	-565.28485	305.23907	943.80219	-590.54126	20.98038	950.99310	-357.55890	136.25182	945.95599	-676.54083	295.29156	588.08661	-609.58350	335.65054	470.44470	-470.44312	244.24300	283.60532	-309.61505	288.56204	200.23808	-253.78345	212.61255	223.56587	-385.91141	282.92630	77.78858	-651.27582	76.78564	632.44177	-577.40649	27.77456	462.70670	-582.64722	112.40545	325.68936	-512.98029	59.99554	58.65138	-445.49841	115.37650	42.91376	-653.52338	74.32510	38.32372	-423.11484	276.07062	53.84576	-400.16644	249.22757	78.05400	-352.61804	206.09984	152.27664	-291.94794	189.70358	191.18181	-266.27109	260.75757	203.47472	-308.00156	298.67468	142.05820	-351.21854	315.36987	93.89874	-696.55682	101.67285	33.94515	-663.05170	113.99789	43.08331	-566.72900	152.61064	49.58409	-484.66608	149.73767	44.74138	-475.48398	76.70082	39.12351	-549.03760	51.70320	31.02018	-612.72614	39.95385	34.94849	
427	3.550	-560.62994	175.79536	1729.20142	-672.04871	175.04192	1646.27649	-452.86212	164.68335	1660.42041	-497.05222	367.19086	1426.56506	-384.76651	89.96973	1280.01453	-466.43985	487.73422	1110.66223	-626.66180	485.49353	899.20203	-544.85968	-36.34451	1423.71313	-510.96295	-157.10037	1112.28516	-599.81854	-184.92325	871.99762	-578.29449	303.64865	946.47498	-601.44067	19.60419	951.91138	-369.53223	137.71570	947.78442	-695.07367	294.18402	593.98669	-631.14227	334.27280	474.37961	-498.91071	243.34129	282.29489	-341.77377	287.98434	192.19145	-283.54254	211.23857	212.06917	-424.10419	282.39001	74.11326	-657.84363	75.17567	630.77856	-580.11084	27.60745	462.20389	-584.43829	112.44910	325.38651	-512.62878	59.99483	59.09173	-445.63907	115.79485	43.24265	-653.61591	74.24408	38.25637	-463.03030	275.80151	52.38364	-438.77530	248.73012	74.87479	-386.39505	205.01500	146.17792	-325.97513	190.67210	181.29822	-299.07498	259.91776	193.04134	-343.45319	298.36642	134.10078	-386.56714	314.78171	89.11015	-696.89142	102.29809	33.52237	-663.25513	113.84843	43.04459	-567.11328	152.71199	49.54637	-484.79242	149.79430	44.95856	-475.96957	77.09386	39.45631	-549.10364	51.98550	31.05725	-612.76233	39.89044	34.93083	
428	3.558	-573.03760	176.38675	1730.17004	-684.41119	175.73561	1647.14819	-464.87897	165.21361	1661.16675	-508.17752	367.18469	1427.08435	-397.14389	89.04290	1281.88000	-474.02505	486.56030	1111.23462	-629.15479	484.73468	895.71198	-557.90015	-35.89953	1425.57996	-529.74011	-157.78917	1113.73291	-627.51868	-184.27199	876.92096	-590.49969	302.28134	948.48492	-612.05902	18.03622	952.39215	-380.93579	138.95619	948.85052	-713.78326	293.03226	599.59125	-652.60846	332.36469	478.49069	-528.01099	242.30095	280.68484	-374.78641	287.44373	183.64191	-317.06616	211.99850	200.92819	-462.87479	282.21542	70.51434	-664.62555	74.09516	628.77393	-583.09644	27.29742	461.93167	-587.56769	112.74632	324.96588	-512.90521	60.56548	59.31057	-445.47678	115.85682	43.63425	-653.14789	74.25403	37.79589	-502.83667	275.62073	50.79782	-477.38916	248.40273	71.34216	-422.19781	204.87213	140.02893	-361.49237	190.99820	172.28285	-331.93195	259.68430	182.39114	-379.36353	298.17197	126.05705	-424.69687	314.09512	83.22678	-697.15704	102.09134	33.50790	-663.58154	113.75581	43.04000	-567.21985	152.70261	49.33773	-484.51511	149.80327	44.76830	-476.20517	77.37089	39.79723	-549.32135	52.38167	31.06083	-612.76135	39.88613	34.87159	
429	3.567	-585.42358	177.07907	1730.70532	-697.05841	176.48668	1647.63232	-476.93961	165.69492	1662.13000	-519.72217	367.12350	1427.31018	-409.42355	87.70803	1282.80298	-482.05347	485.53232	1111.68103	-632.10229	484.06729	892.08112	-570.64142	-35.61676	1427.10071	-548.75720	-158.89339	1115.14783	-655.17554	-183.06090	881.60126	-604.01245	300.98996	950.08301	-622.57294	16.42214	952.46191	-392.49933	140.83206	950.13568	-731.82617	291.63266	604.52124	-672.41809	331.04681	482.06647	-557.14319	240.97169	279.02545	-408.79333	287.08865	174.56949	-349.44147	210.99718	188.83118	-502.39249	282.20227	67.06718	-671.23145	73.34399	626.83173	-586.33160	27.44977	461.55795	-589.22205	111.85329	324.39209	-510.01474	59.72806	60.66790	-445.79971	116.45025	44.38755	-652.95856	74.26836	37.43915	-543.34167	275.59442	49.44786	-517.26300	248.56230	68.85397	-457.92801	204.46358	133.60345	-397.56384	191.46893	162.55981	-365.84833	259.03326	171.02563	-415.90372	298.06259	118.05753	-464.18454	314.08939	78.31262	-696.56226	100.72079	32.07043	-664.26099	114.34182	43.03384	-567.46948	152.84875	49.06905	-485.32446	150.33716	45.10424	-476.29987	77.99783	40.06766	-549.26886	52.71846	31.02192	-612.76904	39.90117	34.80648	
430	3.575	-597.87134	177.93237	1731.00439	-709.13483	177.22862	1647.76428	-489.37531	166.58330	1662.64722	-531.51215	366.98599	1426.95471	-422.33328	86.90265	1283.67590	-489.92230	484.60547	1111.86511	-634.45966	483.66721	888.33844	-583.57764	-34.94289	1428.41321	-568.01550	-159.71559	1116.19836	-682.92957	-181.96344	886.32947	-616.73029	299.48477	951.06836	-632.94098	15.05138	952.15857	-404.07486	141.86121	950.28125	-749.48157	290.42621	609.54352	-692.51202	329.31784	485.11948	-585.55188	239.76970	276.83115	-443.16620	286.62378	165.40375	-383.02802	211.03049	176.05626	-542.64941	282.41193	63.76215	-677.80988	72.73503	625.33020	-588.69342	27.58930	460.95456	-591.86444	111.75121	324.36591	-509.69092	60.39807	60.91011	-446.37943	117.11861	44.83189	-652.96454	74.18023	37.31773	-584.32288	275.83487	48.42662	-557.08197	248.59320	65.69820	-493.88541	204.42523	126.38087	-430.99023	191.35394	152.14952	-404.39511	258.81799	157.51324	-453.18005	298.46777	109.95300	-503.76923	314.31030	72.87790	-696.73938	100.40837	31.98335	-664.22668	114.38760	42.68370	-568.14905	153.11871	49.11522	-485.61206	150.71910	45.23095	-476.39905	78.68365	40.66956	-549.08038	52.98225	31.01811	-612.79053	39.89777	34.73886	
